{"scene":0,"asset":{"generator":"ImageToStl.com","version":"2.0"},"scenes":[{"name":"Scene","nodes":[0]}],"nodes":[{"name":"Node0","children":[1,2,3]},{"name":"Node1","mesh":0},{"name":"Node2","mesh":1},{"name":"Node3","mesh":2}],"materials":[{"name":"x1","pbrMetallicRoughness":{"baseColorFactor":[0.85,0.85,0.85,1.0],"metallicFactor":0.05,"roughnessFactor":0.5},"doubleSided":true}],"meshes":[{"name":"Mesh0","primitives":[{"indices":1,"material":0,"attributes":{"POSITION":0}}]},{"name":"Mesh0","primitives":[{"indices":3,"material":0,"attributes":{"POSITION":2}}]},{"name":"Mesh0","primitives":[{"indices":5,"material":0,"attributes":{"POSITION":4}}]}],"accessors":[{"bufferView":0,"componentType":5126,"count":666,"type":"VEC3","min":[-2.05,-1.6,-0.5],"max":[2.05,1.6,1.0]},{"bufferView":1,"componentType":5123,"count":3015,"type":"SCALAR"},{"bufferView":2,"componentType":5126,"count":24,"type":"VEC3","min":[-1.6,-17.1,-0.32],"max":[1.6,-1.6,0.32]},{"bufferView":3,"componentType":5123,"count":108,"type":"SCALAR"},{"bufferView":4,"componentType":5126,"count":327,"type":"VEC3","min":[-0.695,-0.31985578,0.9],"max":[0.7167354,0.16396482,0.9]},{"bufferView":5,"componentType":5123,"count":969,"type":"SCALAR"}],"bufferViews":[{"target":34962,"buffer":0,"byteLength":7992,"byteOffset":0},{"target":34963,"buffer":0,"byteLength":6030,"byteOffset":7992},{"target":34962,"buffer":0,"byteLength":288,"byteOffset":14024},{"target":34963,"buffer":0,"byteLength":216,"byteOffset":14312},{"target":34962,"buffer":0,"byteLength":3924,"byteOffset":14528},{"target":34963,"buffer":0,"byteLength":1938,"byteOffset":18452}],"buffers":[{"byteLength":20392,"uri":"data:application/octet-stream;base64,"}]}