{"scene":0,"asset":{"generator":"ImageToStl.com","version":"2.0"},"scenes":[{"name":"Scene","nodes":[0]}],"nodes":[{"name":"Node0","children":[1,2,3]},{"name":"Node1","mesh":0},{"name":"Node2","mesh":1},{"name":"Node3","mesh":2}],"materials":[{"name":"x1","pbrMetallicRoughness":{"baseColorFactor":[0.85,0.85,0.85,1.0],"metallicFactor":0.05,"roughnessFactor":0.5},"doubleSided":true}],"meshes":[{"name":"Mesh0","primitives":[{"indices":1,"material":0,"attributes":{"POSITION":0}}]},{"name":"Mesh0","primitives":[{"indices":3,"material":0,"attributes":{"POSITION":2}}]},{"name":"Mesh0","primitives":[{"indices":5,"material":0,"attributes":{"POSITION":4}}]}],"accessors":[{"bufferView":0,"componentType":5126,"count":192,"type":"VEC3","min":[-1.549,-1.549,0.0],"max":[1.549,1.549,0.051]},{"bufferView":1,"componentType":5123,"count":864,"type":"SCALAR"},{"bufferView":2,"componentType":5126,"count":260,"type":"VEC3","min":[-1.3173738,-0.8,0.0],"max":[0.876,1.0774459,1.095]},{"bufferView":3,"componentType":5123,"count":1536,"type":"SCALAR"},{"bufferView":4,"componentType":5126,"count":8,"type":"VEC3","min":[-1.549,-1.549,0.051],"max":[1.549,1.549,1.092]},{"bufferView":5,"componentType":5123,"count":36,"type":"SCALAR"}],"bufferViews":[{"target":34962,"buffer":0,"byteLength":2304,"byteOffset":0},{"target":34963,"buffer":0,"byteLength":1728,"byteOffset":2304},{"target":34962,"buffer":0,"byteLength":3120,"byteOffset":4032},{"target":34963,"buffer":0,"byteLength":3072,"byteOffset":7152},{"target":34962,"buffer":0,"byteLength":96,"byteOffset":10224},{"target":34963,"buffer":0,"byteLength":72,"byteOffset":10320}],"buffers":[{"byteLength":10392,"uri":"data:application/octet-stream;base64,"}]}