{"scene":0,"asset":{"generator":"ImageToStl.com","version":"2.0"},"scenes":[{"name":"Scene","nodes":[0]}],"nodes":[{"name":"Node0","children":[1]},{"name":"Node1","mesh":0}],"materials":[{"name":"x1","pbrMetallicRoughness":{"baseColorFactor":[0.85,0.85,0.85,1.0],"metallicFactor":0.05,"roughnessFactor":0.5},"doubleSided":true}],"meshes":[{"name":"Mesh0","primitives":[{"indices":3,"material":0,"attributes":{"POSITION":0,"NORMAL":1,"TEXCOORD_0":2}}]}],"accessors":[{"bufferView":0,"componentType":5126,"count":6462,"type":"VEC3","min":[-1.49027,1.024994,0.0],"max":[78.50973,62.024994,4.0]},{"bufferView":1,"componentType":5126,"count":6462,"type":"VEC3"},{"bufferView":2,"componentType":5126,"count":6462,"type":"VEC2"},{"bufferView":3,"componentType":5123,"count":48996,"type":"SCALAR"}],"bufferViews":[{"target":34962,"buffer":0,"byteLength":77544,"byteOffset":0},{"target":34962,"buffer":0,"byteLength":77544,"byteOffset":77544},{"target":34962,"buffer":0,"byteLength":51696,"byteOffset":155088},{"target":34963,"buffer":0,"byteLength":97992,"byteOffset":206784}],"buffers":[{"byteLength":304776,"uri":"data:application/octet-stream;base64,"}]}